<svg width="48" height="48" viewBox="0 0 48 48" fill="none" xmlns="http://www.w3.org/2000/svg">
<g clip-path="url(#clip0_115_136)">
<g clip-path="url(#clip1_115_136)">
<g clip-path="url(#clip2_115_136)">
<path d="M24 48C37.2548 48 48 37.2548 48 24C48 10.7452 37.2548 0 24 0C10.7452 0 0 10.7452 0 24C0 37.2548 10.7452 48 24 48Z" fill="url(#paint0_linear_115_136)"/>
<path fill-rule="evenodd" clip-rule="evenodd" d="M26.298 13C26.7155 13.0004 27.1159 13.1665 27.411 13.462L31.7391 17.788C31.8854 17.9344 32.0015 18.1083 32.0805 18.2997C32.1596 18.491 32.2002 18.6961 32.2 18.9031V32.425C32.2 32.8427 32.0341 33.2433 31.7387 33.5387C31.4433 33.8341 31.0427 34 30.625 34H19.075C18.6573 34 18.2567 33.8341 17.9613 33.5387C17.6659 33.2433 17.5 32.8427 17.5 32.425V14.575C17.5 14.1573 17.6659 13.7567 17.9613 13.4613C18.2567 13.1659 18.6573 13 19.075 13H26.298ZM24.85 27.7C24.5715 27.7 24.3045 27.5894 24.1075 27.3925C23.9106 27.1955 23.8 26.9285 23.8 26.65V24.55H21.7C21.4215 24.55 21.1545 24.4394 20.9575 24.2425C20.7606 24.0455 20.65 23.7785 20.65 23.5C20.65 23.2215 20.7606 22.9545 20.9575 22.7575C21.1545 22.5606 21.4215 22.45 21.7 22.45H23.8V20.35C23.8 20.0715 23.9106 19.8045 24.1075 19.6075C24.3045 19.4106 24.5715 19.3 24.85 19.3C25.1285 19.3 25.3955 19.4106 25.5925 19.6075C25.7894 19.8045 25.9 20.0715 25.9 20.35V22.45H28C28.2785 22.45 28.5455 22.5606 28.7425 22.7575C28.9394 22.9545 29.05 23.2215 29.05 23.5C29.05 23.7785 28.9394 24.0455 28.7425 24.2425C28.5455 24.4394 28.2785 24.55 28 24.55H25.9V26.65C25.9 26.9285 25.7894 27.1955 25.5925 27.3925C25.3955 27.5894 25.1285 27.7 24.85 27.7Z" fill="url(#paint1_linear_115_136)"/>
</g>
</g>
</g>
<defs>
<linearGradient id="paint0_linear_115_136" x1="24" y1="0" x2="24" y2="48" gradientUnits="userSpaceOnUse">
<stop stop-color="#0D091D"/>
<stop offset="0.927083" stop-color="#32284F"/>
<stop offset="1" stop-color="#332A53"/>
</linearGradient>
<linearGradient id="paint1_linear_115_136" x1="17.5" y1="16.4644" x2="32.2" y2="30.5356" gradientUnits="userSpaceOnUse">
<stop stop-color="#6D4BF2"/>
<stop offset="1" stop-color="#B686FC"/>
</linearGradient>
<clipPath id="clip0_115_136">
<rect width="48" height="48" fill="white"/>
</clipPath>
<clipPath id="clip1_115_136">
<rect width="48" height="48" fill="white"/>
</clipPath>
<clipPath id="clip2_115_136">
<rect width="48" height="48" fill="white"/>
</clipPath>
</defs>
</svg>
