<svg width="48" height="48" viewBox="0 0 48 48" fill="none" xmlns="http://www.w3.org/2000/svg">
<g clip-path="url(#clip0_115_141)">
<g clip-path="url(#clip1_115_141)">
<g clip-path="url(#clip2_115_141)">
<path d="M24 48C37.2548 48 48 37.2548 48 24C48 10.7452 37.2548 0 24 0C10.7452 0 0 10.7452 0 24C0 37.2548 10.7452 48 24 48Z" fill="url(#paint0_linear_115_141)"/>
<path d="M34.5 19.359V29.5128C34.497 30.0355 34.2881 30.536 33.9185 30.9056C33.5488 31.2753 33.0484 31.4842 32.5256 31.4872H14.4744C13.9516 31.4842 13.4512 31.2753 13.0815 30.9056C12.7119 30.536 12.503 30.0355 12.5 29.5128V15.9744C12.503 15.4516 12.7119 14.9512 13.0815 14.5816C13.4512 14.2119 13.9516 14.003 14.4744 14H20.781C21.0389 13.9995 21.2943 14.0501 21.5324 14.1488C21.7706 14.2476 21.9869 14.3926 22.1687 14.5754L24.899 17.3056C24.9512 17.3544 25.0194 17.3825 25.0908 17.3846H32.5256C33.0484 17.3876 33.5488 17.5965 33.9185 17.9662C34.2881 18.3358 34.497 18.8363 34.5 19.359Z" fill="url(#paint1_linear_115_141)"/>
<path d="M36.3999 28.9157V30.877C36.4 31.0739 36.3578 31.269 36.2757 31.451C36.1937 31.633 36.0734 31.7984 35.9218 31.9377C35.7702 32.077 35.5902 32.1875 35.3921 32.2629C35.194 32.3382 34.9817 32.377 34.7672 32.377H30.0326C29.8181 32.377 29.6058 32.3382 29.4077 32.2629C29.2096 32.1875 29.0296 32.077 28.878 31.9377C28.7264 31.7984 28.6061 31.633 28.5241 31.451C28.442 31.269 28.3998 31.0739 28.3999 30.877V28.9157C28.4007 28.5735 28.5147 28.2396 28.7269 27.9583C28.939 27.677 29.2392 27.4616 29.5877 27.3407V25.9607C29.5877 25.2755 29.8839 24.6183 30.4113 24.1337C30.9387 23.6492 31.654 23.377 32.3999 23.377C33.1458 23.377 33.8611 23.6492 34.3885 24.1337C34.9159 24.6183 35.2121 25.2755 35.2121 25.9607V27.3407C35.5606 27.4616 35.8608 27.677 36.0729 27.9583C36.2851 28.2396 36.3991 28.5735 36.3999 28.9157ZM32.3999 29.4257C32.2917 29.4257 32.1878 29.4652 32.1113 29.5355C32.0347 29.6059 31.9917 29.7012 31.9917 29.8007C31.9917 29.9002 32.0347 29.9955 32.1113 30.0659C32.1878 30.1362 32.2917 30.1757 32.3999 30.1757C32.5082 30.1757 32.612 30.1362 32.6885 30.0659C32.7651 29.9955 32.8081 29.9002 32.8081 29.8007C32.8081 29.7012 32.7651 29.6059 32.6885 29.5355C32.612 29.4652 32.5082 29.4257 32.3999 29.4257ZM34.3958 25.9607C34.3958 25.4744 34.1855 25.0079 33.8112 24.664C33.4369 24.3202 32.9293 24.127 32.3999 24.127C31.8706 24.127 31.3629 24.3202 30.9886 24.664C30.6143 25.0079 30.404 25.4744 30.404 25.9607V27.2282H34.3958V25.9607Z" fill="#211938"/>
<path d="M37.3999 29.3465V31.7436C37.4 31.9843 37.3472 32.2228 37.2447 32.4452C37.1422 32.6677 36.9918 32.8698 36.8023 33.0401C36.6128 33.2103 36.3878 33.3454 36.1402 33.4375C35.8925 33.5296 35.6271 33.577 35.3591 33.5769H29.4407C29.1727 33.577 28.9073 33.5296 28.6597 33.4375C28.412 33.3454 28.187 33.2103 27.9975 33.0401C27.808 32.8698 27.6577 32.6677 27.5551 32.4452C27.4526 32.2228 27.3998 31.9843 27.3999 31.7436V29.3465C27.4009 28.9282 27.5434 28.5201 27.8086 28.1763C28.0738 27.8325 28.449 27.5693 28.8846 27.4215V25.7348C28.8846 24.8973 29.255 24.0941 29.9142 23.5018C30.5735 22.9096 31.4676 22.5769 32.3999 22.5769C33.3322 22.5769 34.2264 22.9096 34.8856 23.5018C35.5448 24.0941 35.9152 24.8973 35.9152 25.7348V27.4215C36.3508 27.5693 36.726 27.8325 36.9912 28.1763C37.2564 28.5201 37.3989 28.9282 37.3999 29.3465ZM32.3999 29.9698C32.2646 29.9698 32.1348 30.0181 32.0391 30.1041C31.9435 30.19 31.8897 30.3066 31.8897 30.4282C31.8897 30.5497 31.9435 30.6663 32.0391 30.7522C32.1348 30.8382 32.2646 30.8865 32.3999 30.8865C32.5352 30.8865 32.665 30.8382 32.7607 30.7522C32.8564 30.6663 32.9101 30.5497 32.9101 30.4282C32.9101 30.3066 32.8564 30.19 32.7607 30.1041C32.665 30.0181 32.5352 29.9698 32.3999 29.9698ZM34.8948 25.7348C34.8948 25.1404 34.6319 24.5703 34.1641 24.15C33.6962 23.7297 33.0616 23.4936 32.3999 23.4936C31.7382 23.4936 31.1036 23.7297 30.6357 24.15C30.1679 24.5703 29.905 25.1404 29.905 25.7348V27.284H34.8948V25.7348Z" fill="#211938"/>
<path d="M36.8999 29.6465V32.0436C36.9 32.2844 36.8525 32.5228 36.7602 32.7453C36.6679 32.9677 36.5326 33.1699 36.3621 33.3401C36.1915 33.5104 35.989 33.6454 35.7661 33.7375C35.5433 33.8296 35.3044 33.877 35.0632 33.877H29.7366C29.4954 33.877 29.2565 33.8296 29.0337 33.7375C28.8108 33.6454 28.6083 33.5104 28.4377 33.3401C28.2672 33.1699 28.1319 32.9677 28.0396 32.7453C27.9473 32.5228 27.8998 32.2844 27.8999 32.0436V29.6465C27.9008 29.2283 28.0291 28.8202 28.2677 28.4764C28.5064 28.1326 28.8441 27.8693 29.2361 27.7215V26.0349C29.2361 25.1973 29.5695 24.3941 30.1628 23.8019C30.7561 23.2097 31.5608 22.877 32.3999 22.877C33.239 22.877 34.0437 23.2097 34.637 23.8019C35.2304 24.3941 35.5637 25.1973 35.5637 26.0349V27.7215C35.9557 27.8693 36.2934 28.1326 36.5321 28.4764C36.7707 28.8202 36.899 29.2283 36.8999 29.6465ZM32.3999 30.2699C32.2781 30.2699 32.1613 30.3182 32.0752 30.4041C31.9891 30.4901 31.9407 30.6066 31.9407 30.7282C31.9407 30.8498 31.9891 30.9663 32.0752 31.0523C32.1613 31.1382 32.2781 31.1865 32.3999 31.1865C32.5217 31.1865 32.6385 31.1382 32.7246 31.0523C32.8107 30.9663 32.8591 30.8498 32.8591 30.7282C32.8591 30.6066 32.8107 30.4901 32.7246 30.4041C32.6385 30.3182 32.5217 30.2699 32.3999 30.2699ZM34.6453 26.0349C34.6453 25.4405 34.4087 24.8704 33.9876 24.4501C33.5666 24.0298 32.9954 23.7936 32.3999 23.7936C31.8044 23.7936 31.2333 24.0298 30.8122 24.4501C30.3911 24.8704 30.1545 25.4405 30.1545 26.0349V27.584H34.6453V26.0349Z" fill="url(#paint2_linear_115_141)"/>
</g>
</g>
</g>
<defs>
<linearGradient id="paint0_linear_115_141" x1="24" y1="0" x2="24" y2="48" gradientUnits="userSpaceOnUse">
<stop stop-color="#0D091D"/>
<stop offset="0.927083" stop-color="#32284F"/>
<stop offset="1" stop-color="#332A53"/>
</linearGradient>
<linearGradient id="paint1_linear_115_141" x1="39" y1="29.0769" x2="13" y2="20.5769" gradientUnits="userSpaceOnUse">
<stop stop-color="#CD99FF"/>
<stop offset="1" stop-color="#6D4BF2"/>
</linearGradient>
<linearGradient id="paint2_linear_115_141" x1="36.9999" y1="32.577" x2="22.4999" y2="26.077" gradientUnits="userSpaceOnUse">
<stop stop-color="#A377F9"/>
<stop offset="1" stop-color="#6D4BF2"/>
</linearGradient>
<clipPath id="clip0_115_141">
<rect width="48" height="48" fill="white"/>
</clipPath>
<clipPath id="clip1_115_141">
<rect width="48" height="48" fill="white"/>
</clipPath>
<clipPath id="clip2_115_141">
<rect width="48" height="48" fill="white"/>
</clipPath>
</defs>
</svg>
