<svg width="48" height="48" viewBox="0 0 48 48" fill="none" xmlns="http://www.w3.org/2000/svg">
<g clip-path="url(#clip0_115_125)">
<g clip-path="url(#clip1_115_125)">
<g clip-path="url(#clip2_115_125)">
<path d="M24 48C37.2548 48 48 37.2548 48 24C48 10.7452 37.2548 0 24 0C10.7452 0 0 10.7452 0 24C0 37.2548 10.7452 48 24 48Z" fill="url(#paint0_linear_115_125)"/>
<path d="M33.5 18.359V28.5128C33.497 29.0355 33.2881 29.536 32.9185 29.9056C32.5488 30.2753 32.0484 30.4842 31.5256 30.4872H13.4744C12.9516 30.4842 12.4512 30.2753 12.0815 29.9056C11.7119 29.536 11.503 29.0355 11.5 28.5128V14.9744C11.503 14.4516 11.7119 13.9512 12.0815 13.5816C12.4512 13.2119 12.9516 13.003 13.4744 13H19.781C20.0389 12.9995 20.2943 13.0501 20.5324 13.1488C20.7706 13.2476 20.9869 13.3926 21.1687 13.5754L23.899 16.3056C23.9512 16.3544 24.0194 16.3825 24.0908 16.3846H31.5256C32.0484 16.3876 32.5488 16.5965 32.9185 16.9662C33.2881 17.3358 33.497 17.8363 33.5 18.359Z" fill="url(#paint1_linear_115_125)"/>
<path d="M33.4052 32.751V33.7744C33.4046 33.9043 33.4258 34.0334 33.4681 34.1559C33.2054 34.2929 32.9276 34.4201 32.6307 34.5434C32.5791 34.5629 32.5224 34.5629 32.4708 34.5434C28.1063 32.7745 28.0185 29.7326 28.122 25.4663C28.1223 25.4166 28.1409 25.3689 28.1741 25.333C28.2074 25.297 28.2527 25.2754 28.3009 25.2726C29.0273 25.2266 29.743 25.0703 30.4249 24.8088C31.1495 24.5308 31.8271 24.1373 32.4327 23.6426C32.4666 23.6151 32.5085 23.6001 32.5517 23.6001C32.5949 23.6001 32.6368 23.6151 32.6706 23.6426C33.2753 24.1376 33.9523 24.5312 34.6766 24.8088C35.3591 25.0701 36.0753 25.2264 36.8022 25.2726C36.8504 25.2754 36.8958 25.297 36.929 25.333C36.9623 25.3689 36.9809 25.4166 36.9811 25.4663V28.1645C36.9785 28.2082 36.9785 28.252 36.9811 28.2956C36.9586 28.8422 36.8931 29.386 36.7851 29.9217C35.7292 28.9118 33.9477 29.7117 33.9589 31.209V31.6923C33.7882 31.8074 33.6481 31.9645 33.5514 32.1493C33.4547 32.3342 33.4046 32.5411 33.4052 32.751Z" fill="#211938"/>
<path d="M31.795 32.7932V33.8165C31.7957 33.9465 31.7745 34.0756 31.7322 34.198C31.9949 34.335 32.2727 34.4622 32.5696 34.5855C32.6212 34.605 32.6779 34.605 32.7295 34.5855C37.0939 32.8167 37.1817 29.7749 37.0781 25.5087C37.0779 25.4591 37.0593 25.4114 37.0261 25.3754C36.9928 25.3394 36.9475 25.3178 36.8993 25.315C36.1729 25.2691 35.4572 25.1128 34.7754 24.8513C34.0507 24.5733 33.3732 24.1798 32.7675 23.6852C32.7337 23.6576 32.6918 23.6426 32.6486 23.6426C32.6054 23.6426 32.5635 23.6576 32.5296 23.6852C31.925 24.1802 31.248 24.5737 30.5237 24.8513C29.8413 25.1126 29.125 25.2688 28.3981 25.315C28.3499 25.3178 28.3046 25.3394 28.2713 25.3754C28.2381 25.4114 28.2194 25.4591 28.2192 25.5087V28.2069C28.2218 28.2506 28.2218 28.2943 28.2192 28.338C28.2417 28.8845 28.3073 29.4283 28.4153 29.9639C29.4711 28.9541 31.2526 29.754 31.2414 31.2512V31.7345C31.4121 31.8496 31.5522 32.0067 31.6489 32.1915C31.7456 32.3764 31.7957 32.5833 31.795 32.7932Z" fill="#211938"/>
<path d="M33.2157 32.319V33.2493C33.2151 33.3675 33.234 33.4848 33.2715 33.5962C33.0381 33.7207 32.7911 33.8363 32.5272 33.9484C32.4813 33.9662 32.4309 33.9662 32.3851 33.9484C28.5055 32.3404 28.4275 29.575 28.5195 25.6965C28.5197 25.6514 28.5363 25.608 28.5658 25.5753C28.5954 25.5426 28.6357 25.523 28.6785 25.5204C29.3242 25.4786 29.9604 25.3366 30.5665 25.0988C31.2106 24.8461 31.8129 24.4883 32.3512 24.0387C32.3813 24.0136 32.4186 24 32.457 24C32.4953 24 32.5326 24.0136 32.5627 24.0387C33.1002 24.4887 33.702 24.8465 34.3458 25.0988C34.9524 25.3364 35.5891 25.4784 36.2352 25.5204C36.2781 25.523 36.3184 25.5426 36.3479 25.5753C36.3775 25.608 36.394 25.6514 36.3942 25.6965V28.1495C36.3919 28.1892 36.3919 28.229 36.3942 28.2687C36.3743 28.7656 36.316 29.2599 36.22 29.7469C35.2814 28.8288 33.6978 29.556 33.7078 30.9171V31.3565C33.556 31.4611 33.4315 31.604 33.3456 31.772C33.2596 31.9401 33.2151 32.1282 33.2157 32.319Z" fill="url(#paint2_linear_115_125)"/>
<path d="M31.7844 32.3574V33.2876C31.785 33.4058 31.7661 33.5231 31.7286 33.6345C31.962 33.759 32.209 33.8746 32.4729 33.9867C32.5188 34.0044 32.5691 34.0044 32.615 33.9867C36.4945 32.3787 36.5725 29.6135 36.4805 25.7351C36.4803 25.69 36.4637 25.6467 36.4342 25.6139C36.4046 25.5812 36.3643 25.5616 36.3215 25.559C35.6758 25.5172 35.0396 25.3752 34.4336 25.1375C33.7894 24.8848 33.1872 24.527 32.6488 24.0774C32.6187 24.0523 32.5815 24.0387 32.5431 24.0387C32.5047 24.0387 32.4675 24.0523 32.4374 24.0774C31.8999 24.5273 31.2981 24.8851 30.6543 25.1375C30.0477 25.375 29.411 25.517 28.7649 25.559C28.7221 25.5616 28.6818 25.5812 28.6522 25.6139C28.6226 25.6467 28.6061 25.69 28.6059 25.7351V28.188C28.6082 28.2277 28.6082 28.2675 28.6059 28.3072C28.6259 28.804 28.6841 29.2984 28.7801 29.7853C29.7187 28.8673 31.3023 29.5945 31.2923 30.9555V31.3949C31.444 31.4995 31.5685 31.6423 31.6545 31.8104C31.7405 31.9784 31.785 32.1666 31.7844 32.3574Z" fill="url(#paint3_linear_115_125)"/>
</g>
</g>
</g>
<defs>
<linearGradient id="paint0_linear_115_125" x1="24" y1="0" x2="24" y2="48" gradientUnits="userSpaceOnUse">
<stop stop-color="#0D091D"/>
<stop offset="0.927083" stop-color="#32284F"/>
<stop offset="1" stop-color="#332A53"/>
</linearGradient>
<linearGradient id="paint1_linear_115_125" x1="38" y1="28.0769" x2="12" y2="19.5769" gradientUnits="userSpaceOnUse">
<stop stop-color="#CD99FF"/>
<stop offset="1" stop-color="#6D4BF2"/>
</linearGradient>
<linearGradient id="paint2_linear_115_125" x1="28.3408" y1="27.3483" x2="35.5344" y2="31.5465" gradientUnits="userSpaceOnUse">
<stop stop-color="#6D4BF2"/>
<stop offset="1" stop-color="#BC8BFC"/>
</linearGradient>
<linearGradient id="paint3_linear_115_125" x1="28.3408" y1="27.3483" x2="35.5344" y2="31.5465" gradientUnits="userSpaceOnUse">
<stop stop-color="#6D4BF2"/>
<stop offset="1" stop-color="#BC8BFC"/>
</linearGradient>
<clipPath id="clip0_115_125">
<rect width="48" height="48" fill="white"/>
</clipPath>
<clipPath id="clip1_115_125">
<rect width="48" height="48" fill="white"/>
</clipPath>
<clipPath id="clip2_115_125">
<rect width="48" height="48" fill="white"/>
</clipPath>
</defs>
</svg>
